<?xml version="1.0"?>
<svg version="1.1" xmlns="http://www.w3.org/2000/svg" width="350" height="50" style=""><path fill="#0e7ac7" d="M26.76,54.89q-1.33,0-2.6075-0.945t-1.2775-2.1q0-0.735,0.735-0.735q0.175,0,0.525,0.07q0.42,1.47,0.7,1.995q0.595,0.945,2.03,0.945q4.305,0,10.57-11.76l6.3-11.235q-6.755,7.21-9.5725,10.0275t-3.8675,3.4475q-2.1,1.26-3.465,1.26q-1.995,0-1.995-2.345q0-2.8,2.38-5.775q0.175-0.21,1.4875-1.8025t3.08-3.7975t2.94-4.2525t1.1725-2.87t-0.49-1.0675q-1.015-0.525-2.31-0.525q-3.71,0-10.255,4.48q-2.73,1.855-4.34,4.305t-1.61,4.515t1.995,2.59q0.63,0.175,1.225,0.175q1.785,0,3.955-1.54q2.555-1.715,2.87-1.82q-0.35,1.295-2.765,2.835q-2.66,1.645-4.97,1.645q-0.315,0-1.1725-0.1225t-1.6975-1.2775t-0.84-2.8q0-4.76,6.965-9.73q2.03-1.47,5.355-2.66t5.3725-1.19t3.115,0.6475t1.0675,2.065t-1.96,4.41t-6.195,8.1375q-0.875,1.015-1.61,2.6425t-0.735,2.59t0.7525,0.9625t2.2575-1.085q4.27-3.045,8.5225-7.385t6.2475-7.28q1.435-2.065,3.045-2.065q0.56,0,0.56,0.35q0,0.07-0.07,0.28q-4.41,7.7-12.005,20.44q-2.24,3.675-4.7775,5.5125t-4.6375,1.8375z M56.55095,38.58q0,1.225-2.345,4.095q-2.765,3.395-4.725,3.395l-0.56,0q-0.91,0-1.435-0.945q-0.42-0.665-0.42-1.47q0-2.1,3.0625-5.8975t4.9525-3.7975q1.785,0,1.785,1.89q0,0.49-0.175,1.26q0.035,0.105,0.665,0.105t1.925-0.665q-0.035,0.595-2.765,1.715q0.035,0.14,0.035,0.315z M54.27595,36.76q-1.19,0-3.3775,2.8t-2.1875,4.13t0.84,1.33q1.505,0,3.815-2.73t2.31-3.92q-0.56-0.315-1.4-1.61z M68.5969,46.21q-0.175,0.035-0.7525,0.035t-1.155-0.455t-0.5775-1.1725t0.2625-1.5925t0.3675-1.33q-4.025,4.69-6.3,4.69q-1.435,0-1.575-1.785l0-0.245q0-1.505,1.82-4.06q-1.015,0.91-2.065,2.1q-0.14,0.14-0.35,0.14q-0.14,0-0.14-0.175t0.315-0.595l4.83-5.67q0.91-1.05,1.855-1.05t0.945,0.63q0,0.245-0.21,0.455q-1.4,1.295-3.5175,4.305t-2.1175,4.445q0,0.63,0.42,0.63q1.47,0,4.27-2.905q0.98-0.98,3.64-4.3225t3.5-3.3425q1.26,0,1.26,0.98q0,0.35-1.47,2.03q-1.995,2.415-3.045,3.9375t-1.05,2.4675t0.525,0.945q0.245,0,0.56-0.14q2.415-1.05,5.775-4.9q0.21-0.245,0.42-0.245t0.21,0.2275t-0.245,0.5075q-1.505,1.75-3.535,3.5175t-2.87,1.9425z M82.35785,46.175q-2.625,0-2.625-2.905q0-1.47,0.77-3.22t1.68-2.94q-0.175,0.035-0.455,0.035q-0.84,0-1.4-1.19l-2.59,3.36q-2.17,2.695-2.52,2.695q-0.175,0-0.175-0.14q0-0.35,0.595-1.015q3.045-3.535,4.305-5.985q0.805-3.045,2.03-3.045q0.805,0,0.805,0.7t-0.875,1.785l-0.84,1.12q0,0.735,1.085,0.735q0.63,0,1.4-0.455l0.91-0.56q0.07-0.035,0.35-0.035t0.595,0.35t0.21,0.63l-2.415,3.045q-2.24,2.87-2.24,4.5325t1.54,1.6625q1.61,0,3.955-1.715q1.4-1.015,2.555-2.275q1.085-1.26,1.19-1.26q0.245,0,0.245,0.2625t-0.315,0.6125l-1.12,1.26q-0.945,0.98-2.1,1.89q-2.765,2.065-4.55,2.065z M117.50975,37.215q3.395,0.105,3.5875,0.105l0.2275,0q0.84-0.07,0.84,0.245q0,0.49-1.365,0.49l-2.975-0.07q-0.91,0.07-1.085,0.175q-1.47,1.82-3.955,5.2675t-2.485,4.1125q0,0.28,0.63-0.14q0.385,0,0.385,0.105q0,0.175-0.77,0.525l-0.98,0.525q-0.665,0.56-1.5225,0.56t-0.7875-0.42q0.035-0.84,2.485-4.2525t5.075-6.4925q-2.52,0.455-3.85,0.455q-0.14-0.035-0.14-0.2275t0.42-0.5425t0.8925-0.35t1.5225-0.035l1.785,0q1.19-1.61,5.285-7.42q1.68-2.415,1.68-3.99q0-2.45-3.64-2.45q-2.835,0-6.6675,1.575t-7.0525,4.305q-2.275,1.89-3.605,4.095t-1.33,3.92q0,2.765,3.29,2.765q0.28,0,0.595-0.035q2.135-0.175,4.0425-2.4325t1.9075-3.7975q0-0.14-0.035-0.315q0.91,0.175,0.91,1.085q0,1.505-1.96,3.535q-2.66,2.765-6.16,2.765q-1.925,0-3.01-1.015t-1.085-2.765q0-4.13,5.04-8.33q3.64-2.975,7.735-4.4975t7.1225-1.5225t4.515,0.875t1.4875,2.4325t-1.365,3.5175q-0.805,1.295-5.635,7.665z M134.3157,35.535l0.49-0.105q0.385,0,0.735,0.315t0.35,0.49t-2.17,3.3775t-2.17,4.4625q0,0.105,0.035,0.21q0.175,0.805,0.77,0.805q1.82,0,6.65-6.02q0.105-0.14,0.245-0.14t0.14,0.2625t-0.315,0.6825q-4.48,5.985-6.825,5.985q-0.315,0-0.595-0.105q-1.54-0.595-1.54-2.31q0-0.595,0.14-1.19l-2.17,2.1q-2.065,1.82-2.9925,1.82t-1.7675-0.595q-0.945-0.7-0.945-1.855q0-2.555,3.57-6.1075t6.545-3.5525q1.155,0,1.54,0.805q0.105,0.28,0.175,0.4725t0.105,0.1925z M123.8507,44.145q0,1.26,0.875,1.26q2.03,0,5.53-4.445l3.71-5.11q-0.28-0.49-0.91-0.49q-2.135,0-5.67,3.3075t-3.535,5.4775z M148.14665,32.245q1.05,0,1.785,0.7t0.735,1.96q0,2.765-4.585,6.93q-3.885,3.5-6.265,4.27q-0.385,0-1.015-0.42t-0.63-0.77q0-0.77,1.68-5.215t2.31-4.97q0.14-0.14,0.455-0.14t0.665,0.3325t0.385,0.7875q0,0.035-1.7325,4.06t-1.6275,4.795q1.505-0.455,5.3725-3.675t3.8675-5.775q0-1.54-1.54-2.24q-0.245-0.105-0.245-0.315q0-0.315,0.385-0.315z M186.16855,39.385q0,1.26-0.56,2.38q-1.19,2.52-4.55,4.2t-7,1.68q-5.53,0-7.525-3.78q-3.605,3.01-5.145,3.01q-0.28,0-0.49-0.105q-1.05-0.56-1.05-2.415t1.54-4.55t2.695-3.185q0.525-0.175,0.805-0.175q1.015,0,1.54,1.68l1.05,3.36q1.015-1.085,2.765-3.465l3.115-4.2q5.74-7.455,7.525-8.155q0.63-0.245,1.295-0.245t1.1025,0.28t0.4375,0.7q0,0.63-1.015,0.735q-1.05,0.595-4.0075,3.4825t-3.5175,3.6575q-3.92,5.46-7.245,8.4q2.135,4.235,6.405,4.235q2.59,0,5.145-1.6275t3.815-4.0075q0.56-1.015,0.56-2.275t-0.9975-2.3975t-2.5025-1.6625q-0.7-0.105-2.24-0.2975t-1.54-0.6475q0-0.175,0.14-0.315q0.42-0.49,1.085-0.49q0.385,0,0.7525,0.14t0.5775,0.21t0.49,0.175q0.77,0.07,1.33,0.07q2.31,0,4.2-0.735q2.415-0.945,3.08-2.835q0.42-1.225,0.42-2.205q0-2.415-2.345-3.605q-2.03-1.05-5.565-1.05q-5.565,0-9.975,2.1q-2.24,1.05-4.2525,3.115t-2.0125,3.535q0,1.015,0.525,1.68q0.21,0.28,0.735,0.7q0.175,0.105-0.21,0.105q-2.17-0.49-2.17-2.905t2.45-4.55q1.82-1.575,4.095-2.555q4.725-2.03,10.745-2.03q4.305,0,6.86,1.26q2.975,1.4,2.975,4.235q0,1.12-0.455,2.275q-0.735,2.1-3.815,3.185q-2.31,0.805-4.97,0.84q2.065,0.105,3.4825,1.5225t1.4175,3.5175z M163.80355,38.09q-0.035,0-0.175,0.07q-2.59,3.745-2.59,6.02q0,0.945,0.455,1.715q0.105,0.175,0.35,0.175q1.12,0,4.305-3.185l-0.105-0.14q-1.4-4.655-2.24-4.655z M201.0495,35.535l0.49-0.105q0.385,0,0.735,0.315t0.35,0.49t-2.17,3.3775t-2.17,4.4625q0,0.105,0.035,0.21q0.175,0.805,0.77,0.805q1.82,0,6.65-6.02q0.105-0.14,0.245-0.14t0.14,0.2625t-0.315,0.6825q-4.48,5.985-6.825,5.985q-0.315,0-0.595-0.105q-1.54-0.595-1.54-2.31q0-0.595,0.14-1.19l-2.17,2.1q-2.065,1.82-2.9925,1.82t-1.7675-0.595q-0.945-0.7-0.945-1.855q0-2.555,3.57-6.1075t6.545-3.5525q1.155,0,1.54,0.805q0.105,0.28,0.175,0.4725t0.105,0.1925z M190.5845,44.145q0,1.26,0.875,1.26q2.03,0,5.53-4.445l3.71-5.11q-0.28-0.49-0.91-0.49q-2.135,0-5.67,3.3075t-3.535,5.4775z M212.53545,46.175q-2.625,0-2.625-2.905q0-1.47,0.77-3.22t1.68-2.94q-0.175,0.035-0.455,0.035q-0.84,0-1.4-1.19l-2.59,3.36q-2.17,2.695-2.52,2.695q-0.175,0-0.175-0.14q0-0.35,0.595-1.015q3.045-3.535,4.305-5.985q0.805-3.045,2.03-3.045q0.805,0,0.805,0.7t-0.875,1.785l-0.84,1.12q0,0.735,1.085,0.735q0.63,0,1.4-0.455l0.91-0.56q0.07-0.035,0.35-0.035t0.595,0.35t0.21,0.63l-2.415,3.045q-2.24,2.87-2.24,4.5325t1.54,1.6625q1.61,0,3.955-1.715q1.4-1.015,2.555-2.275q1.085-1.26,1.19-1.26q0.245,0,0.245,0.2625t-0.315,0.6125l-1.12,1.26q-0.945,0.98-2.1,1.89q-2.765,2.065-4.55,2.065z M228.7114,37.285q0-2.38,1.47-2.38q0.14,0,0.315,0.035q0.595,0.105,0.595,0.91t-0.28,2.03q-0.28,0.91-0.385,1.365q0.105,0.595,0.5775,1.5225t1.295,0.9275t1.8375-1.12q0.21-0.245,0.4025-0.245t0.21,0.2275t-0.2625,0.6125q-1.085,1.295-2.275,1.295q-1.715,0-2.765-2.52q-1.085,2.485-3.08,4.2875t-3.955,1.8025q-1.855,0-1.855-2.8q0-2.205,4.1125-8.12t6.2825-5.915q0.455,0,0.8225,0.28t0.3675,0.665q0-0.035-0.5075,0.525t-2.765,3.01t-4.4275,5.39t-2.17,4.55q0,0.42,0.2275,0.91t0.7525,0.49q1.54,0,3.605-2.38q1.715-2.1,2.1-3.535q-0.245-0.735-0.245-1.82z M236.83735,46.455q-0.385,0-0.7-0.105q-2.24-0.63-2.24-2.52q0-2.45,3.08-5.67t5.53-3.22q0.805,0,1.3125,0.4375t0.5075,1.0675q0,1.96-2.9575,3.745t-4.8125,1.785q-0.28,0-0.49-0.07q-0.525,0.945-0.525,1.995q0,1.82,1.7325,1.82t4.4975-2.345q2.135-1.715,3.64-3.64q0.315-0.42,0.5425-0.42t0.2275,0.21t-0.28,0.595q-1.89,2.485-4.55,4.41t-4.515,1.925z M243.45235,36.375q0-0.42-0.8925-0.42t-2.5375,1.365q-2.205,1.82-3.43,3.815q0.21,0.07,0.455,0.07q1.33,0,3.5525-1.4175t2.7825-3.0975q0.07-0.175,0.07-0.315z M252.7333,46.175q-2.625,0-2.625-2.905q0-1.47,0.77-3.22t1.68-2.94q-0.175,0.035-0.455,0.035q-0.84,0-1.4-1.19l-2.59,3.36q-2.17,2.695-2.52,2.695q-0.175,0-0.175-0.14q0-0.35,0.595-1.015q3.045-3.535,4.305-5.985q0.805-3.045,2.03-3.045q0.805,0,0.805,0.7t-0.875,1.785l-0.84,1.12q0,0.735,1.085,0.735q0.63,0,1.4-0.455l0.91-0.56q0.07-0.035,0.35-0.035t0.595,0.35t0.21,0.63l-2.415,3.045q-2.24,2.87-2.24,4.5325t1.54,1.6625q1.61,0,3.955-1.715q1.4-1.015,2.555-2.275q1.085-1.26,1.19-1.26q0.245,0,0.245,0.2625t-0.315,0.6125l-1.12,1.26q-0.945,0.98-2.1,1.89q-2.765,2.065-4.55,2.065z M267.36925,45.475q-1.015,0.595-2.5025,0.595t-2.275-0.98t-1.3475-3.115q-0.63,0.63-0.875,0.63q-0.175,0-0.175-0.245t0.175-0.42q1.155-1.435,3.92-4.13l4.41-4.13q1.89-1.785,2.24-1.785q1.12,0,1.12,0.84q0,0.42-0.3325,0.8225t-0.49,0.63t-0.3325,0.4375q-0.63,1.085-1.2775,4.48t-0.9975,4.725q2.905-0.035,5.985-3.78q0.35-0.35,0.525-0.35t0.175,0.2275t-0.315,0.6125q-2.03,2.38-3.78,3.325q-1.05,0.525-2.73,0.875z M262.64425,41.59q0,1.19,0.7875,1.9425t1.7675,0.7525t1.505-0.385q0.7-0.385,1.3825-3.22t0.8225-5.005l0.14-1.19q-1.925,1.435-4.1125,3.71t-2.2575,3.01q-0.035,0.21-0.035,0.385z M283.3352,45.86q-2.065,0-2.065-2.415q0-1.365,0.9625-3.0275t2.3625-3.9025q-4.48,2.24-8.12,6.615q-2.03,3.045-2.38,3.045q-1.015,0-1.015-0.595q0-0.315,0.42-1.12q3.395-6.055,5.145-8.855q4.165-6.685,5.88-7.245q0.07-0.035,0.14-0.035q0.455,0,0.63,0.735q-0.105,0.735-3.64,5.32q-3.675,4.655-4.165,6.09q1.295-0.945,4.515-3.185q3.465-2.415,4.585-2.415t1.12,0.875q0,0.14-0.0175,0.1925t-2.4325,3.3075t-2.415,4.795q0,0.805,0.595,0.805q1.89-0.07,5.67-4.55q0.315-0.315,0.4725-0.315t0.1575,0.21q0,0.7-3.465,3.78q-2.17,1.89-2.94,1.89z M298.88115,38.58q0,1.225-2.345,4.095q-2.765,3.395-4.725,3.395l-0.56,0q-0.91,0-1.435-0.945q-0.42-0.665-0.42-1.47q0-2.1,3.0625-5.8975t4.9525-3.7975q1.785,0,1.785,1.89q0,0.49-0.175,1.26q0.035,0.105,0.665,0.105t1.925-0.665q-0.035,0.595-2.765,1.715q0.035,0.14,0.035,0.315z M296.60615,36.76q-1.19,0-3.3775,2.8t-2.1875,4.13t0.84,1.33q1.505,0,3.815-2.73t2.31-3.92q-0.56-0.315-1.4-1.61z M314.3221,38.09q0,2.835-3.2375,5.3725t-5.6175,2.5375q-1.575,0-2.2925-0.21t-1.5925-1.26q-0.595,0.49-1.61,2.5025t-1.015,3.4475q0,0.665,0.665,1.75q0.07,0.175-0.105,0.2975t-0.2625,0.1225t-0.1575-0.035q-1.47-0.805-1.47-3.1325t3.8675-8.05t5.3375-6.2125q0.35-0.07,0.455-0.07q0.595,0,0.595,1.295q0.35-0.35,1.435-0.665q1.33-0.35,1.89-0.35q1.26,0,2.1875,0.7175t0.9275,1.9425z M312.5371,37.74q0-1.33-1.575-1.33t-2.87,0.665q-0.595,0.28-3.29,3.08t-2.695,3.605q0,0.63,0.9625,0.945t1.9425,0.315q1.925,0,4.725-2.1875t2.8-5.0925z"/><path fill="#" d=""/></svg>
